{
  "accessors": [
    {
      "bufferView": 2,
      "componentType": 5126,
      "count": 231,
      "max": [
        3.3138699531555176,
        1.3626790046691895,
        3.581744909286499
      ],
      "min": [
        -3.1335780620574951,
        0.22572900354862213,
        -3.5353629589080811
      ],
      "type": "VEC3"
    },
    {
      "bufferView": 2,
      "byteOffset": 2772,
      "componentType": 5126,
      "count": 231,
      "max": [
        0.96821987628936768,
        1,
        0.96847033500671387
      ],
      "min": [
        -0.99752300977706909,
        -1,
        -0.99254399538040161
      ],
      "type": "VEC3"
    },
    {
      "bufferView": 3,
      "componentType": 5126,
      "count": 231,
      "max": [
        0.97340744733810425,
        0.5945972204208374,
        0.99884796142578125,
        1
      ],
      "min": [
        -0.96637833118438721,
        -1,
        -0.99603861570358276,
        -1
      ],
      "type": "VEC4"
    },
    {
      "bufferView": 1,
      "componentType": 5126,
      "count": 231,
      "max": [
        0.94713902473449707,
        0.99800801277160645
      ],
      "min": [
        0.0018909999635070562,
        0.0019920000340789557
      ],
      "type": "VEC2"
    },
    {
      "bufferView": 0,
      "componentType": 5125,
      "count": 816,
      "max": [
        230
      ],
      "min": [
        0
      ],
      "type": "SCALAR"
    },
    {
      "bufferView": 2,
      "byteOffset": 5544,
      "componentType": 5126,
      "count": 10,
      "max": [
        1.4824199676513672,
        0.36229801177978516,
        3.4855110645294189
      ],
      "min": [
        -3.1335780620574951,
        0.36229801177978516,
        -3.5353629589080811
      ],
      "type": "VEC3"
    },
    {
      "bufferView": 2,
      "byteOffset": 5664,
      "componentType": 5126,
      "count": 10,
      "max": [
        0.29740297794342041,
        0.85924285650253296,
        0.96474254131317139
      ],
      "min": [
        -0.94795209169387817,
        0.093957029283046722,
        -0.24387003481388092
      ],
      "type": "VEC3"
    },
    {
      "bufferView": 3,
      "byteOffset": 3696,
      "componentType": 5126,
      "count": 10,
      "max": [
        0.97106164693832397,
        0.30716526508331299,
        0.96846574544906616,
        1
      ],
      "min": [
        -0.24915829300880432,
        -5.3844501962885261e-05,
        -0.58321589231491089,
        1
      ],
      "type": "VEC4"
    },
    {
      "bufferView": 1,
      "byteOffset": 1848,
      "componentType": 5126,
      "count": 10,
      "max": [
        0.66818499565124512,
        0.70559799671173096
      ],
      "min": [
        0.0018909999635070562,
        0.019433999434113503
      ],
      "type": "VEC2"
    },
    {
      "bufferView": 0,
      "byteOffset": 3264,
      "componentType": 5125,
      "count": 18,
      "max": [
        9
      ],
      "min": [
        0
      ],
      "type": "SCALAR"
    },
    {
      "bufferView": 2,
      "byteOffset": 5784,
      "componentType": 5126,
      "count": 53,
      "max": [
        2.903325080871582,
        1.2103129625320435,
        3.3896040916442871
      ],
      "min": [
        -3.0567879676818848,
        0.36229801177978516,
        -3.4463770389556885
      ],
      "type": "VEC3"
    },
    {
      "bufferView": 2,
      "byteOffset": 6420,
      "componentType": 5126,
      "count": 53,
      "max": [
        0.8255389928817749,
        0.93186688423156738,
        0.96846574544906616
      ],
      "min": [
        -0.96846574544906616,
        -0.91101288795471191,
        -0.96846574544906616
      ],
      "type": "VEC3"
    },
    {
      "bufferView": 3,
      "byteOffset": 3856,
      "componentType": 5126,
      "count": 53,
      "max": [
        0.97275620698928833,
        0.091960817575454712,
        0.96846991777420044,
        1
      ],
      "min": [
        -0.59729129076004028,
        -1,
        -0.59578394889831543,
        1
      ],
      "type": "VEC4"
    },
    {
      "bufferView": 1,
      "byteOffset": 1928,
      "componentType": 5126,
      "count": 53,
      "max": [
        0.91006898880004883,
        0.95740997791290283
      ],
      "min": [
        0.0018909999635070562,
        0.039062000811100006
      ],
      "type": "VEC2"
    },
    {
      "bufferView": 0,
      "byteOffset": 3336,
      "componentType": 5125,
      "count": 138,
      "max": [
        52
      ],
      "min": [
        0
      ],
      "type": "SCALAR"
    },
    {
      "bufferView": 2,
      "byteOffset": 7056,
      "componentType": 5126,
      "count": 239,
      "max": [
        2.7080559730529785,
        2.5077180862426758,
        2.7650399208068848
      ],
      "min": [
        -2.8935379981994629,
        1.3707669973373413,
        -3.6845879554748535
      ],
      "type": "VEC3"
    },
    {
      "bufferView": 2,
      "byteOffset": 9924,
      "componentType": 5126,
      "count": 239,
      "max": [
        0.99843275547027588,
        1,
        0.99634546041488647
      ],
      "min": [
        -0.99609178304672241,
        -1,
        -0.99634724855422974
      ],
      "type": "VEC3"
    },
    {
      "bufferView": 3,
      "byteOffset": 4704,
      "componentType": 5126,
      "count": 239,
      "max": [
        0.9941977858543396,
        0.59460043907165527,
        0.99999356269836426,
        1
      ],
      "min": [
        -0.99634468555450439,
        -1,
        -0.99634855985641479,
        -1
      ],
      "type": "VEC4"
    },
    {
      "bufferView": 1,
      "byteOffset": 2352,
      "componentType": 5126,
      "count": 239,
      "max": [
        0.94713902473449707,
        0.99800801277160645
      ],
      "min": [
        0.0018909999635070562,
        0.0019920000340789557
      ],
      "type": "VEC2"
    },
    {
      "bufferView": 0,
      "byteOffset": 3888,
      "componentType": 5125,
      "count": 834,
      "max": [
        238
      ],
      "min": [
        0
      ],
      "type": "SCALAR"
    },
    {
      "bufferView": 2,
      "byteOffset": 12792,
      "componentType": 5126,
      "count": 48,
      "max": [
        2.6421380043029785,
        2.3553509712219238,
        2.64900803565979
      ],
      "min": [
        -2.4927918910980225,
        1.5073369741439819,
        -3.6032249927520752
      ],
      "type": "VEC3"
    },
    {
      "bufferView": 2,
      "byteOffset": 13368,
      "componentType": 5126,
      "count": 48,
      "max": [
        0.99634462594985962,
        0.93186658620834351,
        0.99634462594985962
      ],
      "min": [
        -0.82602602243423462,
        -0.91101300716400146,
        -0.99207150936126709
      ],
      "type": "VEC3"
    },
    {
      "bufferView": 3,
      "byteOffset": 8528,
      "componentType": 5126,
      "count": 48,
      "max": [
        0.34205645322799683,
        0.11586638540029526,
        0.82550454139709473,
        1
      ],
      "min": [
        -0.99634468555450439,
        -0.99999994039535522,
        -0.99634468555450439,
        1
      ],
      "type": "VEC4"
    },
    {
      "bufferView": 1,
      "byteOffset": 4264,
      "componentType": 5126,
      "count": 48,
      "max": [
        0.91006898880004883,
        0.95740997791290283
      ],
      "min": [
        0.0018909999635070562,
        0.039062000811100006
      ],
      "type": "VEC2"
    },
    {
      "bufferView": 0,
      "byteOffset": 7224,
      "componentType": 5125,
      "count": 126,
      "max": [
        47
      ],
      "min": [
        0
      ],
      "type": "SCALAR"
    },
    {
      "bufferView": 2,
      "byteOffset": 13944,
      "componentType": 5126,
      "count": 239,
      "max": [
        2.5699241161346436,
        3.6585440635681152,
        2.9081380367279053
      ],
      "min": [
        -2.9495038986206055,
        2.5215940475463867,
        -3.4739611148834229
      ],
      "type": "VEC3"
    },
    {
      "bufferView": 2,
      "byteOffset": 16812,
      "componentType": 5126,
      "count": 239,
      "max": [
        0.99723422527313232,
        1,
        0.99748951196670532
      ],
      "min": [
        -0.99892687797546387,
        -1,
        -0.99748802185058594
      ],
      "type": "VEC3"
    },
    {
      "bufferView": 3,
      "byteOffset": 9296,
      "componentType": 5126,
      "count": 239,
      "max": [
        0.99795055389404297,
        0.59459543228149414,
        0.99749058485031128,
        1
      ],
      "min": [
        -0.99716174602508545,
        -1,
        -0.99996370077133179,
        -1
      ],
      "type": "VEC4"
    },
    {
      "bufferView": 1,
      "byteOffset": 4648,
      "componentType": 5126,
      "count": 239,
      "max": [
        0.94713902473449707,
        0.99800801277160645
      ],
      "min": [
        0.0018909999635070562,
        0.0019920000340789557
      ],
      "type": "VEC2"
    },
    {
      "bufferView": 0,
      "byteOffset": 7728,
      "componentType": 5125,
      "count": 834,
      "max": [
        238
      ],
      "min": [
        0
      ],
      "type": "SCALAR"
    },
    {
      "bufferView": 2,
      "byteOffset": 19680,
      "componentType": 5126,
      "count": 53,
      "max": [
        2.1714510917663574,
        3.5061779022216797,
        2.8275558948516846
      ],
      "min": [
        -2.8846340179443359,
        2.6581630706787109,
        -3.3646280765533447
      ],
      "type": "VEC3"
    },
    {
      "bufferView": 2,
      "byteOffset": 20316,
      "componentType": 5126,
      "count": 53,
      "max": [
        0.81769484281539917,
        0.93186688423156738,
        0.99748736619949341
      ],
      "min": [
        -0.99748736619949341,
        -0.91101288795471191,
        -0.99748736619949341
      ],
      "type": "VEC3"
    },
    {
      "bufferView": 3,
      "byteOffset": 13120,
      "componentType": 5126,
      "count": 53,
      "max": [
        0.99748742580413818,
        0.11584671586751938,
        0.99748742580413818,
        1
      ],
      "min": [
        -0.3543238639831543,
        -1,
        -0.81717747449874878,
        1
      ],
      "type": "VEC4"
    },
    {
      "bufferView": 1,
      "byteOffset": 6560,
      "componentType": 5126,
      "count": 53,
      "max": [
        0.91006898880004883,
        0.95740997791290283
      ],
      "min": [
        0.0018909999635070562,
        0.039062000811100006
      ],
      "type": "VEC2"
    },
    {
      "bufferView": 0,
      "byteOffset": 11064,
      "componentType": 5125,
      "count": 141,
      "max": [
        52
      ],
      "min": [
        0
      ],
      "type": "SCALAR"
    },
    {
      "bufferView": 2,
      "byteOffset": 20952,
      "componentType": 5126,
      "count": 239,
      "max": [
        2.3768539428710938,
        4.7989659309387207,
        3.2465429306030273
      ],
      "min": [
        -3.2551500797271729,
        3.6620159149169922,
        -3.2279760837554932
      ],
      "type": "VEC3"
    },
    {
      "bufferView": 2,
      "byteOffset": 23820,
      "componentType": 5126,
      "count": 239,
      "max": [
        0.99871426820755005,
        1,
        0.99586361646652222
      ],
      "min": [
        -0.99560999870300293,
        -1,
        -0.99586546421051025
      ],
      "type": "VEC3"
    },
    {
      "bufferView": 3,
      "byteOffset": 13968,
      "componentType": 5126,
      "count": 239,
      "max": [
        0.99371731281280518,
        0.59459739923477173,
        0.99991911649703979,
        1
      ],
      "min": [
        -0.99586284160614014,
        -1,
        -0.99586683511734009,
        -1
      ],
      "type": "VEC4"
    },
    {
      "bufferView": 1,
      "byteOffset": 6984,
      "componentType": 5126,
      "count": 239,
      "max": [
        0.94713902473449707,
        0.99800801277160645
      ],
      "min": [
        0.0018909999635070562,
        0.0019920000340789557
      ],
      "type": "VEC2"
    },
    {
      "bufferView": 0,
      "byteOffset": 11628,
      "componentType": 5125,
      "count": 834,
      "max": [
        238
      ],
      "min": [
        0
      ],
      "type": "SCALAR"
    },
    {
      "bufferView": 2,
      "byteOffset": 26688,
      "componentType": 5126,
      "count": 48,
      "max": [
        2.3105471134185791,
        4.6465997695922852,
        3.128014087677002
      ],
      "min": [
        -2.8535759449005127,
        3.7985849380493164,
        -3.1463251113891602
      ],
      "type": "VEC3"
    },
    {
      "bufferView": 2,
      "byteOffset": 27264,
      "componentType": 5126,
      "count": 48,
      "max": [
        0.99586278200149536,
        0.93186676502227783,
        0.99167364835739136
      ],
      "min": [
        -0.82909482717514038,
        -0.91101276874542236,
        -0.99586278200149536
      ],
      "type": "VEC3"
    },
    {
      "bufferView": 3,
      "byteOffset": 17792,
      "componentType": 5126,
      "count": 48,
      "max": [
        0.3374362587928772,
        0.11586876958608627,
        0.82857173681259155,
        1
      ],
      "min": [
        -0.99586272239685059,
        -0.99999994039535522,
        -0.99586278200149536,
        1
      ],
      "type": "VEC4"
    },
    {
      "bufferView": 1,
      "byteOffset": 8896,
      "componentType": 5126,
      "count": 48,
      "max": [
        0.91006898880004883,
        0.95740997791290283
      ],
      "min": [
        0.0018909999635070562,
        0.039062000811100006
      ],
      "type": "VEC2"
    },
    {
      "bufferView": 0,
      "byteOffset": 14964,
      "componentType": 5125,
      "count": 126,
      "max": [
        47
      ],
      "min": [
        0
      ],
      "type": "SCALAR"
    }
  ],
  "asset": {
    "extras": {
      "author": "AJH2 (https://sketchfab.com/AJH2)",
      "license": "CC-BY-4.0 (http://creativecommons.org/licenses/by/4.0/)",
      "source": "https://sketchfab.com/3d-models/stack-of-books-83d623341f164753b825d1050be009d9",
      "title": "Stack of Books"
    },
    "generator": "Sketchfab-4.61.0",
    "version": "2.0"
  },
  "bufferViews": [
    {
      "buffer": 0,
      "byteLength": 15468,
      "byteOffset": 0,
      "name": "floatBufferViews",
      "target": 34963
    },
    {
      "buffer": 0,
      "byteLength": 9280,
      "byteOffset": 15468,
      "byteStride": 8,
      "name": "floatBufferViews",
      "target": 34962
    },
    {
      "buffer": 0,
      "byteLength": 27840,
      "byteOffset": 24748,
      "byteStride": 12,
      "name": "floatBufferViews",
      "target": 34962
    },
    {
      "buffer": 0,
      "byteLength": 18560,
      "byteOffset": 52588,
      "byteStride": 16,
      "name": "floatBufferViews",
      "target": 34962
    }
  ],
  "buffers": [
    {
      "byteLength": 71148,
      "uri": "scene.bin"
    }
  ],
  "materials": [
    {
      "doubleSided": true,
      "emissiveFactor": [
        0,
        0,
        0
      ],
      "name": "blinn4",
      "pbrMetallicRoughness": {
        "baseColorFactor": [
          0.37626300000000001,
          0.49692199999999997,
          0.088653700000000002,
          1
        ],
        "metallicFactor": 0,
        "roughnessFactor": 0.92074838159999994
      }
    },
    {
      "doubleSided": true,
      "emissiveFactor": [
        0,
        0,
        0
      ],
      "name": "Books_initialShadingGroup2",
      "pbrMetallicRoughness": {
        "baseColorFactor": [
          0.5,
          0.5,
          0.5,
          1
        ],
        "metallicFactor": 0,
        "roughnessFactor": 0.59999999999999998
      }
    },
    {
      "doubleSided": true,
      "emissiveFactor": [
        0,
        0,
        0
      ],
      "name": "lambert2",
      "pbrMetallicRoughness": {
        "baseColorFactor": [
          0.81484699999999999,
          0.79130400000000001,
          0.62396799999999997,
          1
        ],
        "metallicFactor": 0,
        "roughnessFactor": 0.59999999999999998
      }
    },
    {
      "doubleSided": true,
      "emissiveFactor": [
        0,
        0,
        0
      ],
      "name": "blinn3",
      "pbrMetallicRoughness": {
        "baseColorFactor": [
          0.029556900000000001,
          0.14413100000000001,
          0.58407799999999999,
          1
        ],
        "metallicFactor": 0,
        "roughnessFactor": 0.92074838159999994
      }
    },
    {
      "doubleSided": true,
      "emissiveFactor": [
        0,
        0,
        0
      ],
      "name": "blinn2",
      "pbrMetallicRoughness": {
        "baseColorFactor": [
          0.31855499999999998,
          0.036889699999999997,
          0.37123899999999999,
          1
        ],
        "metallicFactor": 0,
        "roughnessFactor": 0.92074838159999994
      }
    },
    {
      "doubleSided": true,
      "emissiveFactor": [
        0,
        0,
        0
      ],
      "name": "blinn1",
      "pbrMetallicRoughness": {
        "baseColorFactor": [
          0.63760700000000003,
          0.061247299999999998,
          0.028426400000000001,
          1
        ],
        "metallicFactor": 0,
        "roughnessFactor": 0.92074838159999994
      }
    }
  ],
  "meshes": [
    {
      "name": "pCube1_blinn4_0",
      "primitives": [
        {
          "attributes": {
            "NORMAL": 1,
            "POSITION": 0,
            "TANGENT": 2,
            "TEXCOORD_0": 3
          },
          "indices": 4,
          "material": 0,
          "mode": 4
        }
      ]
    },
    {
      "name": "pCube1_Books_initialShadingGroup2_0",
      "primitives": [
        {
          "attributes": {
            "NORMAL": 6,
            "POSITION": 5,
            "TANGENT": 7,
            "TEXCOORD_0": 8
          },
          "indices": 9,
          "material": 1,
          "mode": 4
        }
      ]
    },
    {
      "name": "pCube1_lambert2_0",
      "primitives": [
        {
          "attributes": {
            "NORMAL": 11,
            "POSITION": 10,
            "TANGENT": 12,
            "TEXCOORD_0": 13
          },
          "indices": 14,
          "material": 2,
          "mode": 4
        }
      ]
    },
    {
      "name": "pasted__pCube1group_blinn3_0",
      "primitives": [
        {
          "attributes": {
            "NORMAL": 16,
            "POSITION": 15,
            "TANGENT": 17,
            "TEXCOORD_0": 18
          },
          "indices": 19,
          "material": 3,
          "mode": 4
        }
      ]
    },
    {
      "name": "pasted__pCube1group_lambert2_0",
      "primitives": [
        {
          "attributes": {
            "NORMAL": 21,
            "POSITION": 20,
            "TANGENT": 22,
            "TEXCOORD_0": 23
          },
          "indices": 24,
          "material": 2,
          "mode": 4
        }
      ]
    },
    {
      "name": "pasted__pCube1group1_blinn2_0",
      "primitives": [
        {
          "attributes": {
            "NORMAL": 26,
            "POSITION": 25,
            "TANGENT": 27,
            "TEXCOORD_0": 28
          },
          "indices": 29,
          "material": 4,
          "mode": 4
        }
      ]
    },
    {
      "name": "pasted__pCube1group1_lambert2_0",
      "primitives": [
        {
          "attributes": {
            "NORMAL": 31,
            "POSITION": 30,
            "TANGENT": 32,
            "TEXCOORD_0": 33
          },
          "indices": 34,
          "material": 2,
          "mode": 4
        }
      ]
    },
    {
      "name": "pasted__pCube1group2_blinn1_0",
      "primitives": [
        {
          "attributes": {
            "NORMAL": 36,
            "POSITION": 35,
            "TANGENT": 37,
            "TEXCOORD_0": 38
          },
          "indices": 39,
          "material": 5,
          "mode": 4
        }
      ]
    },
    {
      "name": "pasted__pCube1group2_lambert2_0",
      "primitives": [
        {
          "attributes": {
            "NORMAL": 41,
            "POSITION": 40,
            "TANGENT": 42,
            "TEXCOORD_0": 43
          },
          "indices": 44,
          "material": 2,
          "mode": 4
        }
      ]
    }
  ],
  "nodes": [
    {
      "children": [
        1
      ],
      "name": "RootNode (gltf orientation matrix)",
      "rotation": [
        -0.70710678118654746,
        -0,
        -0,
        0.70710678118654757
      ]
    },
    {
      "children": [
        2
      ],
      "name": "RootNode (model correction matrix)"
    },
    {
      "children": [
        3
      ],
      "matrix": [
        1,
        0,
        0,
        0,
        0,
        0,
        1,
        0,
        0,
        -1,
        0,
        0,
        0,
        0,
        0,
        1
      ],
      "name": "bc7716954d4d464487895348b791daad.fbx"
    },
    {
      "children": [
        4,
        8,
        11,
        14
      ],
      "name": "RootNode"
    },
    {
      "children": [
        5,
        6,
        7
      ],
      "name": "pCube1"
    },
    {
      "mesh": 0,
      "name": "pCube1_blinn4_0"
    },
    {
      "mesh": 1,
      "name": "pCube1_Books_initialShadingGroup2_0"
    },
    {
      "mesh": 2,
      "name": "pCube1_lambert2_0"
    },
    {
      "children": [
        9,
        10
      ],
      "name": "pasted__pCube1group"
    },
    {
      "mesh": 3,
      "name": "pasted__pCube1group_blinn3_0"
    },
    {
      "mesh": 4,
      "name": "pasted__pCube1group_lambert2_0"
    },
    {
      "children": [
        12,
        13
      ],
      "name": "pasted__pCube1group1"
    },
    {
      "mesh": 5,
      "name": "pasted__pCube1group1_blinn2_0"
    },
    {
      "mesh": 6,
      "name": "pasted__pCube1group1_lambert2_0"
    },
    {
      "children": [
        15,
        16
      ],
      "name": "pasted__pCube1group2"
    },
    {
      "mesh": 7,
      "name": "pasted__pCube1group2_blinn1_0"
    },
    {
      "mesh": 8,
      "name": "pasted__pCube1group2_lambert2_0"
    }
  ],
  "scene": 0,
  "scenes": [
    {
      "name": "OSG_Scene",
      "nodes": [
        0
      ]
    }
  ]
}

